<?xml version="1.0" encoding="UTF-8" standalone="no"?>
<svg
   xmlns:dc="http://purl.org/dc/elements/1.1/"
   xmlns:cc="http://creativecommons.org/ns#"
   xmlns:rdf="http://www.w3.org/1999/02/22-rdf-syntax-ns#"
   xmlns:svg="http://www.w3.org/2000/svg"
   xmlns="http://www.w3.org/2000/svg"
   xmlns:sodipodi="http://sodipodi.sourceforge.net/DTD/sodipodi-0.dtd"
   xmlns:inkscape="http://www.inkscape.org/namespaces/inkscape"
   width="1024"
   height="1024"
   viewBox="0 0 270.93333 270.93334"
   version="1.1"
   id="svg8"
   inkscape:version="1.0 (4035a4f, 2020-05-01)"
   sodipodi:docname="don.svg">
  <defs
     id="defs2" />
  <sodipodi:namedview
     id="base"
     pagecolor="#ffffff"
     bordercolor="#666666"
     borderopacity="1.0"
     inkscape:pageopacity="0.0"
     inkscape:pageshadow="2"
     inkscape:zoom="0.33942826"
     inkscape:cx="238.40441"
     inkscape:cy="710.11694"
     inkscape:document-units="px"
     inkscape:current-layer="layer1"
     inkscape:document-rotation="0"
     showgrid="false"
     units="px"
     inkscape:showpageshadow="false"
     borderlayer="true"
     inkscape:window-width="1920"
     inkscape:window-height="1027"
     inkscape:window-x="1920"
     inkscape:window-y="25"
     inkscape:window-maximized="1" />
  <metadata
     id="metadata5">
    <rdf:RDF>
      <cc:Work
         rdf:about="">
        <dc:format>image/svg+xml</dc:format>
        <dc:type
           rdf:resource="http://purl.org/dc/dcmitype/StillImage" />
        <dc:title></dc:title>
      </cc:Work>
    </rdf:RDF>
  </metadata>
  <g
     inkscape:label="レイヤー 1"
     inkscape:groupmode="layer"
     id="layer1">
    <g
       id="g925">
      <rect
         style="opacity:0.9;fill:#000000;fill-opacity:1;stroke-width:2.86265;stroke-linecap:round;stroke-linejoin:round"
         id="rect830"
         width="270.93335"
         height="270.93335"
         x="-4.6875246e-09"
         y="0" />
      <g
         id="g865"
         style="fill:#ffffff"
         transform="translate(-8.0986792,0.77949707)">
        <path
           d="M 64.347058,40.658762 V 58.26542 q 11.857545,0 22.637131,-0.71864 v 8.982989 q -10.779586,0.718639 -22.637131,0.718639 v 22.816791 q 15.72023,4.850813 28.655733,14.193121 l -6.018602,8.26435 Q 75.935113,103.899 63.628419,99.407507 q -1.077959,7.366053 -5.210133,11.228733 -4.850814,4.40167 -14.372782,4.40167 -8.533839,0 -13.564312,-3.77286 -4.940644,-3.95251 -4.940644,-10.59992 0,-6.467757 4.940644,-10.240612 5.030473,-3.952515 13.564312,-3.952515 5.299963,0 10.959246,1.257619 V 40.658762 Z M 44.045504,94.736353 q -4.491494,0 -7.096561,1.616938 -2.425407,1.616938 -2.425407,4.311839 0,2.69489 2.515237,4.40166 2.605067,1.70677 7.006731,1.70677 4.491494,0 7.186391,-2.78473 2.605066,-2.78473 3.054216,-7.54571 -5.838943,-1.706767 -10.240607,-1.706767 z"
           style="font-style:normal;font-variant:normal;font-weight:normal;font-stretch:normal;font-size:91.9858px;line-height:1.25;font-family:'EPSON 太角ゴシック体Ｂ';-inkscape-font-specification:'EPSON 太角ゴシック体Ｂ, Normal';font-variant-ligatures:normal;font-variant-caps:normal;font-variant-numeric:normal;font-variant-east-asian:normal;text-align:center;text-anchor:middle;fill:#ffffff;stroke-width:2.29965"
           id="path840" />
        <path
           d="m 179.3756,74.344969 v 9.701627 h -76.17575 v -9.701627 z"
           style="font-style:normal;font-variant:normal;font-weight:normal;font-stretch:normal;font-size:91.9858px;line-height:1.25;font-family:'EPSON 太角ゴシック体Ｂ';-inkscape-font-specification:'EPSON 太角ゴシック体Ｂ, Normal';font-variant-ligatures:normal;font-variant-caps:normal;font-variant-numeric:normal;font-variant-east-asian:normal;text-align:center;text-anchor:middle;fill:#ffffff;stroke-width:2.29965"
           id="path842" />
        <path
           d="m 204.09904,49.102771 q -1.61694,14.462612 -1.61694,30.721821 0,8.713499 1.88643,15.001591 2.15592,6.198257 4.58132,6.198257 1.70677,0 4.40167,-4.58132 2.78472,-4.581324 5.29996,-11.588055 l 7.27622,7.006731 q -3.68302,9.432134 -7.54571,14.462614 -4.49149,5.83894 -9.34231,5.83894 -7.18639,0 -11.67788,-9.07282 -4.40167,-9.072816 -4.40167,-23.176108 0,-16.259209 1.25762,-31.53029 z m 43.83698,4.850814 q 12.84568,21.828662 13.65414,44.286133 l -9.79145,2.425412 Q 250.81058,79.195783 239.40218,57.367121 Z"
           style="font-style:normal;font-variant:normal;font-weight:normal;font-stretch:normal;font-size:91.9858px;line-height:1.25;font-family:'EPSON 太角ゴシック体Ｂ';-inkscape-font-specification:'EPSON 太角ゴシック体Ｂ, Normal';font-variant-ligatures:normal;font-variant-caps:normal;font-variant-numeric:normal;font-variant-east-asian:normal;text-align:center;text-anchor:middle;fill:#ffffff;stroke-width:2.29965"
           id="path844" />
      </g>
      <g
         id="g891"
         transform="translate(5.1562968,-13.758336)">
        <path
           d="m 54.555925,161.17216 q 14.238177,0 21.409999,9.24722 7.277289,9.05849 7.277289,26.98677 0,17.92828 -7.277289,26.98678 -7.171822,9.2472 -21.409999,9.2472 H 36.837306 v -72.46797 z m -6.328078,63.03205 h 6.328078 q 9.070246,0 13.183497,-6.51081 4.113251,-6.32207 4.113251,-20.28725 0,-13.96518 -4.113251,-20.28726 -4.113251,-6.51079 -13.183497,-6.51079 h -6.328078 z"
           style="font-style:normal;font-variant:normal;font-weight:normal;font-stretch:normal;font-size:91.9858px;line-height:1.25;font-family:'EPSON 太角ゴシック体Ｂ';-inkscape-font-specification:'EPSON 太角ゴシック体Ｂ, Normal';font-variant-ligatures:normal;font-variant-caps:normal;font-variant-numeric:normal;font-variant-east-asian:normal;text-align:center;text-anchor:middle;fill:#ffffff;stroke-width:2.55384"
           id="path846" />
        <path
           d="m 116.16384,182.6861 q 11.17961,0 17.92955,7.36002 6.53902,7.26567 6.53902,18.68316 0,11.41747 -6.53902,18.68314 -6.74994,7.36003 -17.92955,7.36003 -11.17961,0 -17.929555,-7.36003 -6.539011,-7.26567 -6.539011,-18.68314 0,-11.41749 6.539011,-18.68316 6.749945,-7.36002 17.929555,-7.36002 z m 0,9.15285 q -6.43354,0 -9.80852,4.34053 -3.69139,4.43489 -3.69139,12.5498 0,8.1149 3.69139,12.54978 3.37498,4.34053 9.80852,4.34053 6.43354,0 9.80852,-4.34053 3.69137,-4.43488 3.69137,-12.54978 0,-8.11491 -3.69137,-12.5498 -3.37498,-4.34053 -9.80852,-4.34053 z"
           style="font-style:normal;font-variant:normal;font-weight:normal;font-stretch:normal;font-size:91.9858px;line-height:1.25;font-family:'EPSON 太角ゴシック体Ｂ';-inkscape-font-specification:'EPSON 太角ゴシック体Ｂ, Normal';font-variant-ligatures:normal;font-variant-caps:normal;font-variant-numeric:normal;font-variant-east-asian:normal;text-align:center;text-anchor:middle;fill:#ffffff;stroke-width:2.55384"
           id="path848" />
        <path
           d="m 159.19477,182.6861 v 5.0954 q 4.64058,-6.22772 13.71083,-6.22772 9.49212,0 14.44912,4.71797 5.16793,4.62361 5.16793,13.39903 v 33.96935 h -10.96868 v -33.96935 q 0,-3.9631 -2.63669,-6.41644 -2.6367,-2.5477 -7.06636,-2.5477 -9.38665,0 -12.23428,10.1908 v 32.74269 H 148.64797 V 182.6861 Z"
           style="font-style:normal;font-variant:normal;font-weight:normal;font-stretch:normal;font-size:91.9858px;line-height:1.25;font-family:'EPSON 太角ゴシック体Ｂ';-inkscape-font-specification:'EPSON 太角ゴシック体Ｂ, Normal';font-variant-ligatures:normal;font-variant-caps:normal;font-variant-numeric:normal;font-variant-east-asian:normal;text-align:center;text-anchor:middle;fill:#ffffff;stroke-width:2.55384"
           id="path850" />
        <path
           d="m 223.06481,223.99286 v 9.70162 h -9.70163 v -9.70162 z m 0.71864,-61.44364 v 15.81006 l -2.15592,33.41671 h -6.82707 l -2.15592,-33.41671 v -15.81006 z"
           style="font-style:normal;font-variant:normal;font-weight:normal;font-stretch:normal;font-size:91.9858px;line-height:1.25;font-family:'EPSON 太角ゴシック体Ｂ';-inkscape-font-specification:'EPSON 太角ゴシック体Ｂ, Normal';font-variant-ligatures:normal;font-variant-caps:normal;font-variant-numeric:normal;font-variant-east-asian:normal;text-align:center;text-anchor:middle;fill:#ffffff;stroke-width:2.29965"
           id="path852" />
      </g>
    </g>
  </g>
</svg>
